<?xml version="1.0" encoding="utf-8"?>
<!-- Generator: Adobe Illustrator 25.4.0, SVG Export Plug-In . SVG Version: 6.00 Build 0)  -->
<svg version="1.1" id="Calque_1" xmlns="http://www.w3.org/2000/svg" xmlns:xlink="http://www.w3.org/1999/xlink" x="0px" y="0px"
	 viewBox="0 0 829 409" style="enable-background:new 0 0 829 409;" xml:space="preserve">
<style type="text/css">
	.st0{clip-path:url(#SVGID_00000149379987978809553060000003804716762179920806_);fill:#1D1D1B;}
	.st1{clip-path:url(#SVGID_00000181087829643549291910000009479462941617833378_);fill:#FFFFFF;}
	.st2{clip-path:url(#SVGID_00000036966818239782329740000005379355570507220363_);fill:#FFFFFF;}
	.st3{clip-path:url(#SVGID_00000001636493371046394430000001452078818074339481_);fill:#FFFFFF;}
	.st4{clip-path:url(#SVGID_00000179612101308425911490000015128159111168787857_);fill:#FFFFFF;}
	.st5{clip-path:url(#SVGID_00000043428123010049387560000017372958271753021861_);fill:#FFFFFF;}
	.st6{clip-path:url(#SVGID_00000148637138919056098380000006996889266417836213_);fill:#FFFFFF;}
	.st7{clip-path:url(#SVGID_00000142898210087306173260000005226227180330241435_);fill:#FFFFFF;}
	.st8{clip-path:url(#SVGID_00000078037307924756094210000000587454277541805730_);fill:#FFFFFF;}
	.st9{clip-path:url(#SVGID_00000136390961282052691710000014420338799830156971_);fill:#FFFFFF;}
	.st10{fill:#FFFFFF;}
	.st11{fill:none;}
</style>
<g id="Calque_2_00000048459781556144108850000014218721002697500312_">
</g>
<g id="Calque_1_00000083066160376841752980000014734298532006350507_">
	<g>
		<g id="CANALBOX_00000101790455755486163340000017920168577610969532_">
			<g>
				<g>
					<defs>
						<rect id="SVGID_1_" x="49.9" y="29.7" width="726.3" height="343.6"/>
					</defs>
					<clipPath id="SVGID_00000066507918054183165290000003232974711230834851_">
						<use xlink:href="#SVGID_1_"  style="overflow:visible;"/>
					</clipPath>
					<polygon style="clip-path:url(#SVGID_00000066507918054183165290000003232974711230834851_);fill:#1D1D1B;" points="
						435.1,82.3 722.1,32.3 771.1,318.3 487.1,368.3 					"/>
				</g>
			</g>
			<g>
				<g>
					<defs>
						<rect id="SVGID_00000051352726609542258620000010603477845331593105_" x="49.9" y="29.7" width="726.3" height="343.6"/>
					</defs>
					<clipPath id="SVGID_00000091014420639169407790000013103110692294067878_">
						<use xlink:href="#SVGID_00000051352726609542258620000010603477845331593105_"  style="overflow:visible;"/>
					</clipPath>
					<path style="clip-path:url(#SVGID_00000091014420639169407790000013103110692294067878_);fill:#FFFFFF;" d="M679.9,178.5
						c-0.5-0.8-0.9-1.4-1.2-1.9c-3.7-6.4-7.4-12.8-11-19.2c-0.5-0.9-1.1-1.4-2.2-1.4c-8.3,0.1-16.7,0-25,0c-0.4,0-0.8,0.1-1.3,0.2
						c0.7,1,1.2,1.8,1.7,2.5c8.3,12.1,16.6,24.2,24.9,36.2c0.9,1.2,0.9,2,0,3.3c-10.5,14.2-20.9,28.5-31.4,42.8
						c-0.4,0.6-0.8,1.2-1.4,2.1h2.3c7.7,0,15.4,0,23.1,0c1.4,0,2.2-0.4,2.9-1.6c5.7-8.4,11.4-16.7,17.2-25c0.4-0.5,0.8-1.1,1.2-1.7
						c0.5,0.8,0.9,1.3,1.3,1.9c5.5,8.3,10.9,16.5,16.4,24.9c0.7,1.1,1.5,1.5,2.8,1.5c7.8-0.1,15.5,0,23.3,0c0.6,0,1.2-0.1,2.2-0.1
						c-0.6-0.8-0.9-1.4-1.3-1.9c-10.1-14.3-20.2-28.6-30.4-42.8c-0.9-1.3-0.8-2.1,0-3.3c8.7-12.4,17.3-24.8,25.9-37.1
						c0.4-0.5,0.7-1.1,1.2-1.9c-9.2,0-18,0-26.7,0.1c-0.6,0-1.3,0.6-1.7,1.2c-2.8,4.6-5.6,9.3-8.4,14
						C682.9,173.5,681.4,175.9,679.9,178.5 M520.2,196.6c0.5-0.4,0.8-0.7,1.2-0.9c4.2-2.9,6.9-6.9,7.5-12c0.4-2.9,0.5-5.8,0.3-8.7
						c-0.8-10.2-6.5-16.5-16.6-18.3c-2.6-0.5-5.3-0.7-7.9-0.7c-10.5-0.1-21,0-31.5,0c-0.6,0-1.2,0.1-1.8,0.1V243
						c0.5,0,0.9,0.1,1.2,0.1c11.8,0,23.5,0.1,35.3-0.1c3.7-0.1,7.5-0.5,11.1-1.4c8.7-2.3,15.2-7.3,17.7-16.4
						c1.2-4.4,1.2-8.9,0.2-13.3c-1.5-7.2-5.6-12.2-12.9-14.2C522.8,197.3,521.6,197,520.2,196.6 M592.5,152.8c-4,0.5-8.1,0.7-12,1.7
						c-18.1,4.4-30,15.7-34.4,33.8c-4.5,18.5,0.2,34.6,15.2,47c9.8,8.1,21.4,11,33.9,10.6c23.7-0.7,45.8-18.8,45.7-45.8
						c0-15.8-5.9-28.5-18.7-37.8C613.4,155.8,603.3,153.2,592.5,152.8 M484.1,373.3c-1.3-7-2.5-13.9-3.8-20.9
						c-4-22.6-8-45.1-11.9-67.7c-3.9-21.9-7.7-43.8-11.6-65.6c-3.9-21.9-7.8-43.9-11.6-65.8c-4-22.6-8-45.1-11.9-67.7
						c-0.2-1.4-0.5-2.7-0.8-4.4c2.6-0.5,5.1-1,7.6-1.4c38.4-6.8,76.7-13.5,115.1-20.2c36.2-6.4,72.5-12.8,108.7-19.2
						c19.5-3.4,38.9-6.8,58.4-10.3c0.4-0.1,0.8-0.3,1.2-0.4h1.1c1.1,6.3,2.3,12.7,3.4,19c3.7,21.1,7.5,42.3,11.2,63.4
						c3.9,21.9,7.7,43.8,11.6,65.6s7.7,43.8,11.6,65.6c3.8,21.9,7.7,43.8,11.6,65.6c0.7,3.9,1.5,7.8,2.3,11.6v1.1
						c-0.5,0.1-1,0.2-1.5,0.3c-14.7,2.6-29.3,5.1-44,7.7c-25.5,4.5-51,9-76.4,13.5c-27.6,4.9-55.2,9.7-82.8,14.6
						c-24.9,4.4-49.8,8.8-74.8,13.2c-3.8,0.7-7.6,1.5-11.5,2.2L484.1,373.3L484.1,373.3L484.1,373.3z"/>
				</g>
			</g>
			<g>
				<g>
					<defs>
						<rect id="SVGID_00000068663273397734152080000001783206426176132232_" x="49.9" y="29.7" width="726.3" height="343.6"/>
					</defs>
					<clipPath id="SVGID_00000036234070871438872890000004912220389162919854_">
						<use xlink:href="#SVGID_00000068663273397734152080000001783206426176132232_"  style="overflow:visible;"/>
					</clipPath>
					<path style="clip-path:url(#SVGID_00000036234070871438872890000004912220389162919854_);fill:#FFFFFF;" d="M49.9,200.4
						c0.6-3.9,1-7.8,1.9-11.5c5.8-23.4,25.1-33.6,42.4-34.4c9.6-0.5,18.9,0.9,27.7,5c5.7,2.6,5.7,2.7,4.6,8.8
						c-0.8,4.2-1.6,8.4-2.4,12.6c-0.1,0.7-0.4,1.4-0.7,2.4c-1.1-0.7-2-1.2-2.9-1.8c-9.1-5.5-18.8-7.6-29.2-4.3
						c-9.6,3.1-14.9,9.9-16.4,19.9c-1.2,8.5,0.7,16,7.4,21.7c5.8,4.9,12.8,6.2,20.1,5.2c4.3-0.6,8.5-2.3,12.7-3.5
						c0.6-0.2,1.1-0.4,2.1-0.7c-0.5,3.2-0.9,5.9-1.4,8.7c-0.6,3.6-1.2,7.2-1.9,10.8c-0.2,1.3-0.5,2.4-2,2.9
						c-16.6,5.5-32.4,4.5-46.7-6.3c-8.7-6.5-13-15.8-14.5-26.4c-0.3-2.2-0.5-4.4-0.8-6.6L49.9,200.4L49.9,200.4z"/>
				</g>
			</g>
			<g>
				<g>
					<defs>
						<rect id="SVGID_00000150068926403787650380000005691210635604178606_" x="49.9" y="29.7" width="726.3" height="343.6"/>
					</defs>
					<clipPath id="SVGID_00000043449193645542946400000002298418441113211776_">
						<use xlink:href="#SVGID_00000150068926403787650380000005691210635604178606_"  style="overflow:visible;"/>
					</clipPath>
					<path style="clip-path:url(#SVGID_00000043449193645542946400000002298418441113211776_);fill:#FFFFFF;" d="M276.2,206.4
						c0.3-1.6,0.6-3.1,0.8-4.7c1.9-13.4,3.9-26.9,5.8-40.3c0.1-0.9,0.1-1.9,1.6-1.9c6.8,0.1,13.6,0,20.5,0c0.3,0,0.6,0.1,1.1,0.3
						c-0.5,3.5-0.9,7-1.4,10.5c-2.4,16.6-4.7,33.1-7.1,49.7c-1,7.1-2,14.2-3,21.4c-0.2,1.2-0.7,1.5-1.9,1.5c-6.5,0-12.9-0.1-19.3,0
						c-1.2,0-1.8-0.6-2.3-1.5c-8-14.3-16.1-28.6-24.2-42.9c-1.3-2.3-2.6-4.6-4.4-6.9c-0.3,2.1-0.7,4.2-1,6.3
						c-2,14.4-4.1,28.8-6.1,43.1c-0.2,1.2-0.6,1.6-1.8,1.6c-6.3,0-12.5,0-18.8,0c-1.6,0-2-0.6-1.8-2.1c1.8-12.9,3.6-25.9,5.4-38.8
						c1.8-13.2,3.7-26.4,5.5-39.6c0.4-2.7,0.4-2.8,3.1-2.8c6.6,0,13.1,0.1,19.7,0c1.5,0,2.3,0.5,3,1.8c8.2,14.5,16.5,29,24.7,43.5
						c0.4,0.6,0.8,1.2,1.2,1.8L276.2,206.4z"/>
				</g>
			</g>
			<g>
				<g>
					<defs>
						<rect id="SVGID_00000062190765844318104490000006481366513540239008_" x="49.9" y="29.7" width="726.3" height="343.6"/>
					</defs>
					<clipPath id="SVGID_00000106146214943493652530000011698295434306497697_">
						<use xlink:href="#SVGID_00000062190765844318104490000006481366513540239008_"  style="overflow:visible;"/>
					</clipPath>
					<path style="clip-path:url(#SVGID_00000106146214943493652530000011698295434306497697_);fill:#FFFFFF;" d="M160.4,209.9h17.8
						c-2-8.9-3.9-17.6-5.9-26.3c-0.1,0-0.3,0-0.4,0C168.2,192.3,164.4,200.9,160.4,209.9 M119.4,242.4c0.3-0.8,0.6-1.4,0.9-2
						c13.2-26.4,26.3-52.9,39.4-79.3c0.6-1.3,1.3-1.7,2.7-1.7c8,0.1,15.9,0.1,23.9,0c1.7,0,2.3,0.6,2.6,2.2
						c5.6,26.3,11.2,52.6,16.7,78.9c0.5,2.4,0.5,2.4-1.9,2.4c-5.8,0-11.6,0-17.4,0c-1.4,0-1.9-0.5-2.2-1.7
						c-0.9-3.8-1.8-7.6-2.7-11.4c-0.2-1.1-0.7-1.6-1.9-1.6c-8.8,0.1-17.6,0.1-26.4,0c-1.5,0-2.3,0.7-2.9,1.9
						c-1.7,3.7-3.4,7.4-5.3,11.1c-0.3,0.6-1.2,1.4-1.9,1.4c-7.6,0.1-15.3,0.1-22.9,0C120.1,242.7,119.9,242.5,119.4,242.4"/>
				</g>
			</g>
			<g>
				<g>
					<defs>
						<rect id="SVGID_00000094597688860340635770000013848300821402309775_" x="49.9" y="29.7" width="726.3" height="343.6"/>
					</defs>
					<clipPath id="SVGID_00000134234582278655304150000015791016691098222219_">
						<use xlink:href="#SVGID_00000094597688860340635770000013848300821402309775_"  style="overflow:visible;"/>
					</clipPath>
					<path style="clip-path:url(#SVGID_00000134234582278655304150000015791016691098222219_);fill:#FFFFFF;" d="M355.7,211.9
						c-3-8.8-5.8-17.3-8.6-25.8c-0.1,0-0.3,0-0.5,0c-2.9,8.5-5.8,17.1-8.8,25.7L355.7,211.9L355.7,211.9z M303.2,242.8
						c1-2.6,1.9-5,2.8-7.4c9.5-24.6,18.9-49.2,28.3-73.8c0.6-1.6,1.4-2.2,3.1-2.2c6.6,0.1,13.1,0.1,19.7,0c1.2,0,1.8,0.4,2.2,1.5
						c10.1,26.9,20.3,53.8,30.5,80.7c0.1,0.3,0.2,0.6,0.3,1.1c-0.7,0.1-1.3,0.1-1.9,0.1c-6.4,0-12.8,0-19.1,0
						c-1.5,0-2.2-0.5-2.7-1.9c-1.3-3.6-2.7-7.2-4-10.8c-0.5-1.3-1.1-1.8-2.5-1.8c-8.8,0.1-17.6,0.1-26.4,0c-1.4,0-2.1,0.4-2.5,1.7
						c-1.4,3.7-2.9,7.3-4.2,10.9c-0.5,1.3-1.1,1.9-2.6,1.9c-6.4-0.1-12.8,0-19.1,0C304.5,242.9,304,242.9,303.2,242.8"/>
				</g>
			</g>
			<g>
				<g>
					<defs>
						<rect id="SVGID_00000106130950467827718930000018384625329816917430_" x="49.9" y="29.7" width="726.3" height="343.6"/>
					</defs>
					<clipPath id="SVGID_00000071532076415563788900000000543032168833855678_">
						<use xlink:href="#SVGID_00000106130950467827718930000018384625329816917430_"  style="overflow:visible;"/>
					</clipPath>
					<path style="clip-path:url(#SVGID_00000071532076415563788900000000543032168833855678_);fill:#FFFFFF;" d="M421.5,156.4v2.5
						c0,20.2,0,40.4,0,60.7c0,2.4,0,2.5,2.5,2.5c7.8,0,15.5,0,23.3,0c1.6,0,2.1,0.5,2.1,2.1c-0.1,5.7-0.1,11.4,0,17.1
						c0,1.4-0.4,2-1.9,2c-16.3,0-32.6,0-48.9,0c-1.5,0-1.9-0.6-1.9-2c0-27.7,0-55.4,0-83.1c0-1.1,0.1-1.9,1.6-1.9
						c7.3,0,14.5,0,21.8,0C420.5,156.2,420.9,156.3,421.5,156.4"/>
				</g>
			</g>
			<g>
				<g>
					<defs>
						<rect id="SVGID_00000141451355767580037240000001330718583037494953_" x="49.9" y="29.7" width="726.3" height="343.6"/>
					</defs>
					<clipPath id="SVGID_00000097500213678461885540000015398406590221109431_">
						<use xlink:href="#SVGID_00000141451355767580037240000001330718583037494953_"  style="overflow:visible;"/>
					</clipPath>
					<path style="clip-path:url(#SVGID_00000097500213678461885540000015398406590221109431_);fill:#FFFFFF;" d="M592.7,223.9
						c-13.8,0-24.4-10.8-24.4-24.6c0-13.2,11-24.1,24.4-24.1c13.6-0.1,24.5,10.7,24.5,24.3C617.2,213,606.3,223.9,592.7,223.9"/>
				</g>
			</g>
			<g>
				<g>
					<defs>
						<rect id="SVGID_00000018202890499252342330000004772521222800652187_" x="49.9" y="29.7" width="726.3" height="343.6"/>
					</defs>
					<clipPath id="SVGID_00000181766937723245349390000007224974424608058244_">
						<use xlink:href="#SVGID_00000018202890499252342330000004772521222800652187_"  style="overflow:visible;"/>
					</clipPath>
					<path style="clip-path:url(#SVGID_00000181766937723245349390000007224974424608058244_);fill:#FFFFFF;" d="M493.9,206.8
						c4.9,0.4,9.5,0.5,14,1.2c4,0.6,6.3,3.4,6.6,7c0.4,4.4-1.2,7.5-5.2,8.8c-3.5,1.1-7.3,1.2-10.9,1.7c-1.4,0.2-2.7,0-4.4,0v-9.2
						L493.9,206.8L493.9,206.8z"/>
				</g>
			</g>
			<g>
				<g>
					<defs>
						<rect id="SVGID_00000112590461937624049420000003271695979058338196_" x="49.9" y="29.7" width="726.3" height="343.6"/>
					</defs>
					<clipPath id="SVGID_00000003081996516810274810000005032349954184314760_">
						<use xlink:href="#SVGID_00000112590461937624049420000003271695979058338196_"  style="overflow:visible;"/>
					</clipPath>
					<path style="clip-path:url(#SVGID_00000003081996516810274810000005032349954184314760_);fill:#FFFFFF;" d="M494,190.5v-17.4
						c3.2,0.4,6.4,0.4,9.4,1.2c3.6,0.9,5.2,3.7,5.1,7.7c0,3.9-1.7,6.6-5.2,7.4C500.4,190.1,497.2,190.1,494,190.5"/>
				</g>
			</g>
		</g>
		<g id="signature_00000083064584723112227690000009602498944236518838_">
			<path class="st10" d="M68.2,286.9c2.2,0,5.4,0.1,7.9,2.6c1.4,1.4,2.5,3.4,2.5,6.5c0,3.4-1.1,6.3-3,8c-1.4,1.3-4,2.7-9.1,2.7h-4
				l-1.3,10.7h-7l3.8-30.5L68.2,286.9L68.2,286.9z M63.2,301h2.5c1.5,0,3.2-0.1,4.4-1.3c1.1-1,1.2-2.4,1.2-3.2c0-0.9-0.2-1.9-1-2.6
				c-1.1-1-2.9-1.1-4-1.1h-2.1L63.2,301z"/>
			<path class="st10" d="M93.6,286.9c2.9,0,5.8,0.3,8.1,2.7c1.1,1.1,2.2,3.1,2.2,6.2c0,2.9-1,5.2-2.5,6.7c-1.3,1.3-3.2,2.1-4.8,2.5
				l7.9,12.4h-8.2l-7.4-12l-1.5,12h-7.1l3.8-30.5L93.6,286.9L93.6,286.9z M89.4,300.8h1.7c1.1,0,2.9-0.1,4.1-1.1
				c1.2-1,1.6-2.3,1.6-3.6c0-1-0.2-2.2-1.5-3c-0.9-0.6-2.2-0.7-3.8-0.7h-1.1L89.4,300.8z"/>
			<path class="st10" d="M127.9,292.9h-10l-0.7,5.9h9.6l-0.7,6h-9.6l-0.8,6.8h10.2l-0.7,6h-17l3.8-30.5h16.8L127.9,292.9z"/>
			<path class="st10" d="M131.1,317.4l3.8-30.5h6.1l14.1,19.9l2.5-19.9h7.1l-3.8,30.5h-6.1l-14.1-20l-2.4,20L131.1,317.4
				L131.1,317.4z"/>
			<path class="st10" d="M187.3,292.9h-10l-0.7,5.9h9.6l-0.7,6h-9.6l-0.8,6.8h10.2l-0.7,6h-17l3.8-30.5h16.8L187.3,292.9z"/>
			<path class="st10" d="M200.6,311.5h12.9l-0.7,6h-24.7l17.5-24.6h-12.1l0.7-6H218L200.6,311.5z"/>
			<path class="st10" d="M240.1,286.9l-3,24.6h9.5l-0.7,6h-16.6l3.8-30.5L240.1,286.9L240.1,286.9z"/>
			<path class="st10" d="M269.6,292.9h-10l-0.7,5.9h9.6l-0.7,6h-9.6l-0.8,6.8h10.2l-0.7,6h-17l3.8-30.5h16.8L269.6,292.9z"/>
			<path class="st10" d="M282.1,317.4l8.7-30.5h5.8l5.2,18.2l9.9-18.2h6l1.1,30.5h-7l-0.2-18.2l-9.7,18.2h-2.6l-5.4-18.2l-4.7,18.2
				H282.1z"/>
			<path class="st10" d="M353.4,290.2c2.6,2.5,4.3,6.4,4.3,10.8c0,4.4-1.5,9.1-4.7,12.4c-3.8,3.9-8.6,4.7-12.6,4.7
				c-3.8,0-8-0.7-11.6-4.4c-2.1-2.1-4.3-5.7-4.3-10.7c0-5.4,2.1-9.5,5-12.3c3.9-3.7,8.6-4.6,12.5-4.6
				C347.8,286.2,351.3,288.3,353.4,290.2z M334.4,295.6c-1.8,1.9-2.8,4.4-2.8,7c0,2.8,1,5,2.5,6.4c2.1,2.1,4.5,2.6,6.7,2.6
				c2.1,0,4.6-0.3,6.8-2.6c1.6-1.7,2.8-4.4,2.8-7.5c0-2-0.4-4.4-2.4-6.4s-4.4-2.4-6.3-2.4C338.7,292.7,336.2,293.7,334.4,295.6z"/>
			<path class="st10" d="M361,317.4l3.8-30.5h6.1l14,19.9l2.5-19.9h7l-3.8,30.5h-6.1l-14.1-20l-2.4,20L361,317.4L361,317.4z"/>
			<path class="st10" d="M410.1,286.9c3.2,0,8.2,0.5,11.7,3.9c2,2,3.7,5.4,3.7,10.2c0,7-3.2,10.8-4.8,12.3
				c-3.5,3.3-8.3,4.2-13.9,4.2h-9.4l3.8-30.5L410.1,286.9L410.1,286.9z M405.2,311.5h2.1c2.1,0,5.3-0.1,7.8-2.3
				c1.7-1.6,3.1-4.4,3.1-8c0-2.7-0.9-4.9-2.2-6.1c-1.5-1.4-4-2.1-6.4-2.1h-2.1L405.2,311.5z"/>
			<path class="st10" d="M448.6,292.9h-10l-0.7,5.9h9.6l-0.7,6h-9.6l-0.8,6.8h10.2l-0.7,6h-17l3.8-30.5h16.8L448.6,292.9z"/>
			<path class="st10" d="M238.1,341.8c3.2,0,8.2,0.5,11.7,3.9c2,2,3.7,5.4,3.7,10.2c0,7-3.2,10.8-4.8,12.3
				c-3.5,3.3-8.3,4.2-13.9,4.2h-9.4l3.8-30.5L238.1,341.8L238.1,341.8z M233.2,366.4h2.1c2.1,0,5.3-0.1,7.8-2.3
				c1.7-1.6,3.1-4.4,3.1-8c0-2.7-0.9-4.9-2.2-6.1c-1.5-1.4-4-2.1-6.4-2.1h-2.1L233.2,366.4z"/>
			<path class="st10" d="M276.6,347.8h-10l-0.7,5.9h9.6l-0.7,6h-9.6l-0.8,6.8h10.2l-0.7,6h-17l3.8-30.5h16.8L276.6,347.8z"/>
			<path class="st10" d="M298.3,341.8l5.4,19.5l10.1-19.5h7.9l-16.6,30.5h-4.9l-9.1-30.5H298.3z"/>
			<path class="st10" d="M332.3,341.8l-3.8,30.5h-7l3.8-30.5H332.3z"/>
			<path class="st10" d="M349.1,347.8l-3,24.6h-7l3-24.6h-6.6l0.7-6h20.3l-0.7,6H349.1z"/>
			<path class="st10" d="M376.3,347.8h-10l-0.7,5.9h9.6l-0.7,6h-9.6l-0.8,6.8h10.2l-0.7,6h-17l3.8-30.5H377L376.3,347.8z"/>
			<path class="st10" d="M398,349.3c-1.9-1.7-3.8-2.2-5.1-2.2c-0.9,0-2.1,0.1-2.9,0.8c-0.6,0.5-1,1.4-1,2.2c0,0.9,0.4,1.5,1,2.1
				c0.6,0.5,1.5,0.9,3,1.6l1.8,0.8c1.5,0.7,2.8,1.5,4,2.9c1.1,1.4,1.6,2.8,1.6,4.8c0,3.2-1.3,6-3.1,7.8c-2.5,2.4-5.6,3-8.7,3
				c-2.2,0-4-0.3-6.1-1.4c-1.5-0.8-3-2.1-4.1-3.2l3.9-5c0.6,0.9,1.6,1.8,2.6,2.4c1,0.6,2.2,1,3.6,1c1,0,2.5-0.3,3.4-1
				c0.8-0.6,1.3-1.7,1.3-2.8c0-1.1-0.5-1.7-0.9-2.1c-0.2-0.2-0.8-0.7-2.4-1.4l-1.8-0.7c-0.5-0.2-2.8-1.2-4.3-2.7s-2-3.2-2-5.2
				c0-3.2,1.3-5.5,2.8-6.9c2.5-2.4,5.6-2.9,8.2-2.9s5.6,0.5,8.8,3L398,349.3z"/>
			<path class="st10" d="M422.2,349.3c-1.9-1.7-3.8-2.2-5.1-2.2c-0.9,0-2.1,0.1-2.9,0.8c-0.6,0.5-1,1.4-1,2.2c0,0.9,0.4,1.5,1,2.1
				c0.6,0.5,1.5,0.9,3,1.6l1.8,0.8c1.5,0.7,2.8,1.5,4,2.9c1.1,1.4,1.5,2.8,1.5,4.8c0,3.2-1.3,6-3.1,7.8c-2.5,2.4-5.6,3-8.7,3
				c-2.2,0-4-0.3-6.1-1.4c-1.5-0.8-3-2.1-4.1-3.2l3.9-5c0.6,0.9,1.6,1.8,2.6,2.4c1,0.6,2.2,1,3.6,1c1,0,2.5-0.3,3.4-1
				c0.8-0.6,1.3-1.7,1.3-2.8c0-1.1-0.5-1.7-0.9-2.1c-0.2-0.2-0.8-0.7-2.4-1.4l-1.8-0.7c-0.5-0.2-2.8-1.2-4.3-2.7s-2-3.2-2-5.2
				c0-3.2,1.3-5.5,2.8-6.9c2.5-2.4,5.6-2.9,8.2-2.9s5.6,0.5,8.8,3L422.2,349.3z"/>
			<path class="st10" d="M448.6,347.8h-10l-0.7,5.9h9.6l-0.7,6h-9.6l-0.8,6.8h10.2l-0.7,6h-17l3.8-30.5h16.8L448.6,347.8z"/>
		</g>
	</g>
	<rect x="42" y="286.2" class="st11" width="404.4" height="122.8"/>
</g>
</svg>
